<svg width="158" height="95" viewBox="0 0 158 95" fill="none" xmlns="http://www.w3.org/2000/svg">
<rect width="158" height="95" fill="#F7F7F7"/>
<g id="&#235;&#169;&#148;&#236;&#157;&#184;&#237;&#142;&#152;&#236;&#157;&#180;&#236;&#167;&#128;_1920" clip-path="url(#clip0_0_1)">
<rect width="1920" height="11554" transform="translate(-303 -1201)" fill="white"/>
<rect id="Rectangle 63" x="-303" y="-281" width="1920" height="1141" fill="#F2F3F7"/>
<g id="Frame" clip-path="url(#clip1_0_1)">
<g id="Group">
<g id="Layer 1">
<g id="Group_2">
<path id="Vector" style="mix-blend-mode:multiply" opacity="0.15" d="M657 678.025C975.005 678.025 1232.8 519.79 1232.8 324.598C1232.8 129.405 975.005 -28.8301 657 -28.8301C338.995 -28.8301 81.2003 129.405 81.2003 324.598C81.2003 519.79 338.995 678.025 657 678.025Z" fill="url(#paint0_linear_0_1)"/>
</g>
</g>
</g>
</g>
<g id="Group 78">
<g id="Rectangle 71" filter="url(#filter0_d_0_1)">
<rect x="-71" y="-16" width="300" height="216" rx="16" fill="white"/>
</g>
<g id="Layer_1" clip-path="url(#clip2_0_1)">
<g id="Group_3">
<g id="Group_4">
<path id="Vector_2" d="M109.007 62.7585C109.007 63.7736 100.728 64.6 90.5105 64.6C80.2927 64.6 72.014 63.7736 72.014 62.7585C72.014 61.7435 80.2927 60.9171 90.5105 60.9171C100.728 60.9171 109.007 61.7435 109.007 62.7585Z" fill="#E1E1E1"/>
<path id="Vector_3" d="M102.569 33.9072C102.569 47.1421 91.8032 57.8719 78.5234 57.8719C65.2435 57.8719 54.4773 47.1421 54.4773 33.9072C54.4773 20.6722 65.2501 9.94244 78.5299 9.94244C91.8097 9.94244 102.576 20.6722 102.576 33.9072H102.569Z" fill="#0068B2"/>
<path id="Vector_4" d="M64.78 29.1832C64.78 29.1832 75.5527 48.2548 92.5998 53.0634L94.2059 53.5449L94.3691 52.263C94.3691 52.263 79.2546 50.1808 64.78 29.1832Z" fill="white"/>
<path id="Vector_5" d="M46.845 19.4294H53.3609V40.4336H46.845V19.4294Z" fill="#0068B2"/>
<path id="Vector_6" d="M54.6145 33.4908L60.7973 33.1003C60.9345 34.1089 61.2021 34.8702 61.62 35.3973C62.2925 36.2497 63.2522 36.6726 64.4992 36.6726C65.4264 36.6726 66.1445 36.4579 66.6473 36.0219C67.15 35.586 67.4046 35.0849 67.4046 34.5058C67.4046 33.9267 67.1631 33.4712 66.6864 33.0418C66.2098 32.6123 65.0999 32.2024 63.3502 31.825C60.4905 31.1873 58.4535 30.3349 57.2391 29.2743C56.0116 28.2137 55.3979 26.8603 55.3979 25.214C55.3979 24.1339 55.7113 23.1123 56.3381 22.1558C56.9649 21.1928 57.9116 20.438 59.1716 19.8914C60.4317 19.3449 62.1619 19.0651 64.3556 19.0651C67.0455 19.0651 69.1021 19.5661 70.5189 20.5616C71.9292 21.5572 72.7714 23.1449 73.0391 25.3181L66.8888 25.676C66.7256 24.7325 66.3861 24.0428 65.8638 23.6134C65.3415 23.1839 64.6233 22.9692 63.7093 22.9692C62.9519 22.9692 62.3839 23.1318 62.0052 23.4507C61.62 23.7695 61.4307 24.1599 61.4307 24.6219C61.4307 24.9603 61.5873 25.2596 61.9007 25.5264C62.2076 25.8062 62.9323 26.0599 64.0814 26.3007C66.928 26.9123 68.965 27.5305 70.199 28.1551C71.433 28.7798 72.3274 29.5541 72.8889 30.4846C73.4504 31.4086 73.7311 32.4497 73.7311 33.5949C73.7311 34.9418 73.359 36.1846 72.6082 37.3233C71.8639 38.462 70.8193 39.3209 69.4743 39.913C68.1293 40.4986 66.4383 40.7914 64.4013 40.7914C60.8169 40.7914 58.3359 40.1017 56.9583 38.7288C55.5807 37.3558 54.7973 35.6055 54.6145 33.4842V33.4908Z" fill="white"/>
<path id="Vector_7" d="M74.1294 19.4294H83.8053C85.7117 19.4294 87.2526 19.6897 88.4278 20.2038C89.603 20.7178 90.5692 21.4596 91.3397 22.4226C92.1035 23.3856 92.665 24.5113 93.0045 25.7866C93.3506 27.0685 93.5203 28.4219 93.5203 29.8534C93.5203 32.0983 93.2657 33.8421 92.7499 35.0784C92.2341 36.3147 91.529 37.3493 90.6149 38.1887C89.7074 39.0216 88.7281 39.5812 87.6835 39.8609C86.2536 40.2449 84.9609 40.4336 83.8053 40.4336H74.1294V19.4294ZM80.6453 24.1794V35.6575H82.2383C83.5964 35.6575 84.5626 35.5079 85.1372 35.2086C85.7117 34.9092 86.1622 34.3822 86.4887 33.6339C86.8151 32.8856 86.9783 31.6688 86.9783 29.9836C86.9783 27.7582 86.6127 26.2356 85.888 25.4092C85.1633 24.5829 83.9554 24.1794 82.271 24.1794H80.6453Z" fill="#00A0D9"/>
<path id="Vector_8" d="M64.78 28.8578C64.78 28.8578 81.6638 57.7092 107.394 53.0568C107.394 53.0568 118.33 50.1743 102.889 40.7133C102.889 40.7133 109.803 50.1678 103.692 50.0116C97.5813 49.8489 79.568 48.2483 64.7735 28.8578H64.78Z" fill="#0068B2"/>
</g>
<g id="Group_5">
<path id="Vector_9" d="M29.4128 84.8427H27.2191V71.2955H29.4128V84.8427Z" fill="#0068B1"/>
<path id="Vector_10" d="M41.7525 84.8428H39.0691L33.5325 74.4448V84.8428H31.4106V71.3215H34.0483L39.5849 81.7715V71.3215H41.7525V84.8428Z" fill="#0068B1"/>
<path id="Vector_11" d="M50.9452 80.9712C50.9452 81.7065 50.8016 82.3311 50.5078 82.8386C50.214 83.3462 49.8288 83.7691 49.3391 84.0945C48.8494 84.4263 48.2879 84.6606 47.6546 84.8102C47.0213 84.9599 46.3554 85.0314 45.6633 85.0314C45.1279 85.0314 44.6383 84.9859 44.1878 84.8883C43.7373 84.7907 43.2737 84.6541 42.784 84.4654V82.3051C43.1954 82.5263 43.6916 82.689 44.2792 82.7996C44.8668 82.9102 45.4478 82.9623 46.0093 82.9623C46.2313 82.9623 46.4925 82.9297 46.7993 82.8712C47.1062 82.8061 47.4 82.7085 47.6807 82.5654C47.9615 82.4092 48.2031 82.214 48.3989 81.9797C48.5948 81.7455 48.6927 81.4462 48.6927 81.0883C48.6927 80.776 48.5948 80.5027 48.3989 80.2684C48.2031 80.0342 47.955 79.813 47.6546 79.6112C47.3739 79.4225 47.054 79.2404 46.7014 79.0582C46.3488 78.876 46.0159 78.6938 45.7025 78.5051C45.3434 78.3034 44.9778 78.0886 44.6187 77.8739C44.2596 77.6527 43.9331 77.3989 43.6524 77.0996C43.3716 76.8198 43.1366 76.4945 42.9603 76.1366C42.7775 75.7787 42.6992 75.3493 42.7122 74.8482C42.7122 74.3147 42.8363 73.8202 43.0778 73.3582C43.3194 72.8962 43.6524 72.4993 44.0768 72.1739C44.4881 71.8421 44.9647 71.5883 45.5262 71.3996C46.0812 71.2109 46.6688 71.1198 47.2825 71.1198C47.6612 71.1198 48.1312 71.1523 48.6927 71.2239C49.2607 71.2955 49.8418 71.4256 50.4359 71.6143V73.703C49.7308 73.4362 49.1497 73.2801 48.6927 73.2345C48.2357 73.189 47.7721 73.163 47.3021 73.163C47.0344 73.163 46.7602 73.1955 46.4794 73.2671C46.1987 73.3386 45.944 73.4428 45.7286 73.5859C45.4935 73.7095 45.3042 73.8787 45.1606 74.0804C45.0169 74.2821 44.9516 74.5099 44.9516 74.7636C44.9516 75.0304 45.0104 75.2647 45.1279 75.4664C45.2455 75.6681 45.4217 75.8568 45.6568 76.0325C45.8788 76.2017 46.1464 76.3773 46.4664 76.5465C46.7863 76.7157 47.1454 76.9044 47.5371 77.1126C47.8505 77.2883 48.2031 77.4835 48.5948 77.7112C48.9865 77.939 49.3587 78.2058 49.7047 78.5181C50.0507 78.8304 50.338 79.1883 50.5796 79.5982C50.8146 80.0082 50.9321 80.4702 50.9321 80.9842L50.9452 80.9712Z" fill="#0068B1"/>
<path id="Vector_12" d="M61.8289 79.0191C61.8289 80.9321 61.3719 82.4092 60.4513 83.4698C59.5307 84.5304 58.2772 85.0575 56.6907 85.0575C55.1041 85.0575 53.8179 84.5304 52.93 83.4698C52.0421 82.4157 51.5981 80.9321 51.5981 79.0191V71.2955H53.7918V78.928C53.7918 80.2294 53.9942 81.2184 54.3925 81.9081C54.7907 82.5979 55.5612 82.9427 56.6907 82.9427C57.8202 82.9427 58.5971 82.5979 59.0084 81.9081C59.4263 81.2184 59.6352 80.2229 59.6352 78.928V71.2955H61.8289V79.0191Z" fill="#0068B1"/>
<path id="Vector_13" d="M73.9336 84.8428H71.2502L65.7136 74.4448V84.8428H63.5917V71.3215H66.2294L71.7659 81.7715V71.3215H73.9336V84.8428Z" fill="#0068B1"/>
<path id="Vector_14" d="M85.9272 84.4654C85.5681 84.6085 85.0719 84.7386 84.4451 84.8623C83.8183 84.9859 82.95 85.051 81.8531 85.051C80.815 85.051 79.8749 84.8818 79.0392 84.5369C78.1969 84.1921 77.4788 83.7171 76.8846 83.1054C76.2905 82.4938 75.8269 81.765 75.507 80.9191C75.1871 80.0732 75.0239 79.1428 75.0239 78.1277C75.0239 77.1907 75.2002 76.2928 75.5527 75.4404C75.9053 74.588 76.3884 73.8397 77.0021 73.1955C77.6289 72.5513 78.3602 72.0438 79.1959 71.6599C80.025 71.276 80.926 71.0873 81.8793 71.0873C82.8325 71.0873 83.5768 71.1654 84.1383 71.3215C84.7063 71.4777 85.2939 71.6729 85.9076 71.9071V74.2756C85.2939 73.9763 84.6736 73.7226 84.0338 73.5143C83.4005 73.3061 82.6693 73.1955 81.8531 73.1955C81.1611 73.1955 80.5408 73.3321 79.9793 73.6054C79.4244 73.8787 78.9478 74.2496 78.556 74.7181C78.1643 75.1866 77.864 75.7332 77.6485 76.3513C77.4396 76.9695 77.3286 77.6202 77.3286 78.3099C77.3286 79.0452 77.4461 79.6958 77.6812 80.2554C77.9162 80.8215 78.2492 81.303 78.6735 81.713C79.0849 82.1034 79.5615 82.4027 80.1099 82.6044C80.6583 82.8061 81.2394 82.9102 81.8531 82.9102H82.6888C82.8978 82.9102 83.0675 82.9037 83.1981 82.8842C83.3417 82.8842 83.4462 82.8842 83.518 82.8712C83.5898 82.8647 83.6551 82.8517 83.7204 82.8386V79.2469H80.3058V77.2753H85.9337V84.4589L85.9272 84.4654Z" fill="#0068B1"/>
<path id="Vector_15" d="M97.4246 77.965C97.4246 79.891 96.935 81.4397 95.9491 82.6109C94.9697 83.7821 93.442 84.3742 91.3658 84.3742H87.69V71.764H91.3658C92.3255 71.764 93.1808 71.9266 93.9316 72.2585C94.6825 72.5903 95.3223 73.0328 95.8381 73.5989C96.3539 74.165 96.7456 74.8222 97.0133 75.5705C97.281 76.3188 97.4116 77.1191 97.4116 77.965H97.4246ZM96.0797 78.1082C96.0797 76.5725 95.6487 75.3297 94.7869 74.3732C93.9251 73.4167 92.7891 72.9417 91.3919 72.9417H88.9174V83.203H91.085C92.8152 83.203 94.0753 82.7671 94.8783 81.8886C95.6814 81.0102 96.0797 79.7544 96.0797 78.1082Z" fill="#009FDA"/>
<path id="Vector_16" d="M110.169 84.3742H108.759L107.394 80.7825H100.937L99.5008 84.3742H98.2081L103.412 71.764H105.011L110.169 84.3742ZM106.918 79.7739L104.182 72.8506L101.355 79.7739H106.918Z" fill="#009FDA"/>
<path id="Vector_17" d="M118.905 72.8897H115.02V84.3677H113.747V72.8897H109.836V71.764H118.905V72.8897Z" fill="#009FDA"/>
<path id="Vector_18" d="M130.781 84.3742H129.371L128.006 80.7825H121.549L120.113 84.3742H118.82L124.023 71.764H125.623L130.781 84.3742ZM127.53 79.7739L124.794 72.8506L121.967 79.7739H127.53Z" fill="#009FDA"/>
</g>
</g>
</g>
</g>
</g>
<defs>
<filter id="filter0_d_0_1" x="-87" y="-25" width="332" height="248" filterUnits="userSpaceOnUse" color-interpolation-filters="sRGB">
<feFlood flood-opacity="0" result="BackgroundImageFix"/>
<feColorMatrix in="SourceAlpha" type="matrix" values="0 0 0 0 0 0 0 0 0 0 0 0 0 0 0 0 0 0 127 0" result="hardAlpha"/>
<feOffset dy="7"/>
<feGaussianBlur stdDeviation="8"/>
<feComposite in2="hardAlpha" operator="out"/>
<feColorMatrix type="matrix" values="0 0 0 0 0 0 0 0 0 0.12549 0 0 0 0 0.439216 0 0 0 0.2 0"/>
<feBlend mode="normal" in2="BackgroundImageFix" result="effect1_dropShadow_0_1"/>
<feBlend mode="normal" in="SourceGraphic" in2="effect1_dropShadow_0_1" result="shape"/>
</filter>
<linearGradient id="paint0_linear_0_1" x1="658.902" y1="700.08" x2="655.272" y2="-13.8062" gradientUnits="userSpaceOnUse">
<stop stop-color="#C4C9E5"/>
<stop offset="0.17" stop-color="#D1D5EB" stop-opacity="0.77"/>
<stop offset="0.39" stop-color="#E1E4F2" stop-opacity="0.5"/>
<stop offset="0.59" stop-color="#EEEFF7" stop-opacity="0.28"/>
<stop offset="0.76" stop-color="#F7F8FB" stop-opacity="0.13"/>
<stop offset="0.91" stop-color="#FCFDFE" stop-opacity="0.03"/>
<stop offset="1" stop-color="white" stop-opacity="0"/>
</linearGradient>
<clipPath id="clip0_0_1">
<rect width="1920" height="11554" fill="white" transform="translate(-303 -1201)"/>
</clipPath>
<clipPath id="clip1_0_1">
<rect width="1546" height="850" fill="white" transform="translate(-116 -70)"/>
</clipPath>
<clipPath id="clip2_0_1">
<rect width="158" height="95" fill="white"/>
</clipPath>
</defs>
</svg>
